<svg xmlns="http://www.w3.org/2000/svg" width="631" height="489" viewBox="0 0 631 489" fill="none">
<path d="M534.517 41.3817C493.671 22.271 449.997 8.38208 404.337 0.473633C398.729 10.612 392.178 24.2483 387.661 35.0959C339.123 27.7964 291.031 27.7964 243.386 35.0959C238.87 24.2483 232.17 10.612 226.512 0.473633C180.803 8.38208 137.078 22.322 96.2326 41.4829C13.8463 165.979 -8.48724 287.383 2.67956 407.064C57.3225 447.87 110.278 472.658 162.34 488.879C175.194 471.188 186.659 452.381 196.535 432.561C177.725 425.414 159.709 416.594 142.687 406.354C147.203 403.009 151.62 399.511 155.888 395.912C259.714 444.474 372.524 444.474 475.11 395.912C479.428 399.511 483.844 403.009 488.311 406.354C471.238 416.644 453.173 425.464 434.363 432.612C444.24 452.381 455.655 471.239 468.558 488.929C520.67 472.708 573.675 447.921 628.318 407.064C641.421 268.324 605.935 148.035 534.517 41.3817ZM210.68 333.461C179.512 333.461 153.952 304.365 153.952 268.932C153.952 233.499 178.966 204.352 210.68 204.352C242.394 204.352 267.953 233.448 267.407 268.932C267.457 304.365 242.394 333.461 210.68 333.461ZM420.318 333.461C389.15 333.461 363.591 304.365 363.591 268.932C363.591 233.499 388.604 204.352 420.318 204.352C452.031 204.352 477.591 233.448 477.046 268.932C477.046 304.365 452.031 333.461 420.318 333.461Z" fill="white"/>
</svg>